<?xml version="1.0" standalone="no"?>
<svg viewBox="0 0 200 200" xmlns="http://www.w3.org/2000/svg">
  <path fill="#0A50DA" d="M37.6,-65.8C43.7,-61.6,40.1,-41.4,45.1,-27.7C50.1,-14.1,63.7,-7,64.4,0.4C65.1,7.8,52.9,15.7,43.2,21.1C33.5,26.6,26.2,29.6,19.4,42.3C12.6,55.1,6.3,77.5,-2.2,81.3C-10.8,85.2,-21.5,70.5,-35.9,62.2C-50.3,53.9,-68.4,51.9,-78.7,42.6C-89,33.3,-91.5,16.6,-82.9,5C-74.2,-6.6,-54.3,-13.3,-45.9,-25.8C-37.4,-38.3,-40.4,-56.6,-34.6,-61C-28.9,-65.4,-14.4,-55.9,0.7,-57.1C15.8,-58.2,31.5,-70,37.6,-65.8Z" transform="translate(100 100)" />
</svg>
