<?xml version="1.0" standalone="no"?>
<svg viewBox="0 0 200 200" xmlns="http://www.w3.org/2000/svg">
  <path fill="#0A50DA" d="M33.5,-66.2C38.4,-55.2,34,-36.1,40.8,-23.7C47.6,-11.4,65.8,-5.7,71.4,3.2C77,12.1,70.1,24.3,63.7,37.5C57.3,50.7,51.5,64.9,41,63C30.5,61.2,15.2,43.2,4.5,35.5C-6.3,27.8,-12.6,30.3,-20.6,30.6C-28.5,31,-38.1,29.3,-39.5,23.8C-40.9,18.4,-34,9.2,-36.7,-1.5C-39.4,-12.3,-51.5,-24.5,-49.9,-29.5C-48.2,-34.4,-32.7,-32.1,-22.1,-39.8C-11.5,-47.5,-5.7,-65.2,4.3,-72.6C14.3,-80,28.6,-77.1,33.5,-66.2Z" transform="translate(100 100)" />
</svg>
