<?xml version="1.0" standalone="no"?>
<svg viewBox="0 0 200 200" xmlns="http://www.w3.org/2000/svg">
  <path fill="#0A50DA" d="M33.5,-55C45.7,-51,59.3,-46.6,68.3,-37.3C77.4,-28.1,81.9,-14,78.8,-1.8C75.7,10.5,65.1,20.9,58.7,34.9C52.4,48.8,50.3,66.3,41.3,77.6C32.2,88.9,16.1,94.2,0.6,93.1C-14.9,92,-29.7,84.6,-42.4,75.4C-55.1,66.1,-65.6,55,-71.8,42.2C-78,29.3,-79.8,14.7,-78.9,0.5C-78,-13.6,-74.4,-27.2,-66.5,-37.1C-58.6,-47.1,-46.5,-53.3,-34.7,-57.5C-22.9,-61.6,-11.5,-63.7,-0.4,-63.1C10.7,-62.4,21.4,-58.9,33.5,-55Z" transform="translate(100 100)" />
</svg>
