<?xml version="1.0" standalone="no"?>
<svg viewBox="0 0 200 200" xmlns="http://www.w3.org/2000/svg">
  <path fill="#CC0066" d="M32.5,-57.4C44.1,-49.7,56.6,-44.8,67.6,-35.7C78.6,-26.6,88.1,-13.3,87.4,-0.4C86.8,12.6,76.1,25.2,67.6,38.6C59.1,52,52.7,66.2,41.8,74.3C30.9,82.4,15.5,84.3,0.2,84C-15,83.6,-30,80.8,-43.4,74.1C-56.8,67.5,-68.6,56.9,-77.6,43.9C-86.6,30.9,-92.8,15.5,-89.1,2.2C-85.3,-11.1,-71.4,-22.2,-62.5,-35.4C-53.6,-48.5,-49.6,-63.8,-40,-72.6C-30.4,-81.5,-15.2,-83.9,-2.4,-79.8C10.5,-75.7,21,-65.1,32.5,-57.4Z" transform="translate(100 100)" />
</svg>
