<?xml version="1.0" standalone="no"?>
<svg viewBox="0 0 200 200" xmlns="http://www.w3.org/2000/svg">
  <path fill="#CC0066" d="M32.7,-55.8C43.4,-50.5,53.9,-43.8,64.6,-34.3C75.3,-24.8,86.2,-12.4,84.4,-1.1C82.5,10.2,67.7,20.4,58.2,32C48.7,43.6,44.4,56.5,35.6,64C26.8,71.4,13.4,73.3,0.5,72.5C-12.4,71.6,-24.8,68.1,-35,61.4C-45.1,54.7,-52.9,44.9,-53.1,34.1C-53.2,23.4,-45.7,11.7,-49.1,-1.9C-52.4,-15.5,-66.6,-31.1,-68.2,-45C-69.8,-58.8,-59,-71.1,-45.5,-74.9C-32.1,-78.6,-16,-74,-2.5,-69.6C11,-65.2,22,-61.2,32.7,-55.8Z" transform="translate(100 100)" />
</svg>
