<?xml version="1.0" standalone="no"?>
<svg viewBox="0 0 200 200" xmlns="http://www.w3.org/2000/svg">
  <path fill="#CC0066" d="M25.9,-48.5C35.7,-39.2,47.4,-36.6,51.7,-29.7C56,-22.7,53,-11.4,51.5,-0.9C50,9.6,50,19.2,46.5,27.7C43.1,36.2,36.2,43.5,27.9,47.5C19.6,51.6,9.8,52.3,1.6,49.5C-6.5,46.7,-13.1,40.4,-25.3,38.6C-37.5,36.8,-55.4,39.5,-60.6,33.9C-65.8,28.2,-58.2,14.1,-50.3,4.6C-42.4,-5,-34.1,-9.9,-30.5,-18.3C-26.8,-26.6,-27.8,-38.2,-23.5,-50.8C-19.2,-63.3,-9.6,-76.8,-0.8,-75.5C8,-74.1,16.1,-57.9,25.9,-48.5Z" transform="translate(100 100)" />
</svg>
