<?xml version="1.0" standalone="no"?>
<svg viewBox="0 0 200 200" xmlns="http://www.w3.org/2000/svg">
  <path fill="#8A3FFC" d="M25.9,-53.9C29.8,-42.6,26.5,-28,32.3,-18.5C38.1,-9,53,-4.5,62.3,5.4C71.7,15.3,75.6,30.6,66.5,34.4C57.3,38.2,35.2,30.5,22,29C8.8,27.5,4.4,32.2,-2.6,36.7C-9.6,41.2,-19.1,45.5,-30.4,45.8C-41.7,46.2,-54.7,42.6,-66.5,34.3C-78.3,26,-88.9,13,-88.7,0.1C-88.4,-12.7,-77.3,-25.5,-64.9,-32.7C-52.5,-40,-38.8,-41.8,-27.8,-49C-16.8,-56.2,-8.4,-68.9,1.3,-71.1C11,-73.4,22,-65.3,25.9,-53.9Z" transform="translate(100 100)" />
</svg>
