<?xml version="1.0" standalone="no"?>
<svg viewBox="0 0 200 200" xmlns="http://www.w3.org/2000/svg">
  <path fill="#8A3FFC" d="M32.8,-59.1C43.3,-50.7,53.3,-43.6,61.9,-34C70.6,-24.3,78,-12.2,81,1.7C84,15.7,82.7,31.3,75.1,42.7C67.4,54.1,53.4,61.2,39.9,66.3C26.3,71.4,13.2,74.5,1.1,72.6C-11,70.6,-21.9,63.8,-35.2,58.5C-48.5,53.3,-64.1,49.7,-73.1,40.2C-82.2,30.7,-84.6,15.3,-84.7,0C-84.7,-15.4,-82.3,-30.8,-74.6,-42.6C-66.9,-54.4,-53.9,-62.6,-40.6,-69.4C-27.3,-76.3,-13.6,-81.8,-1.3,-79.6C11.1,-77.4,22.2,-67.6,32.8,-59.1Z" transform="translate(100 100)" />
</svg>
